<?xml version="1.0" encoding="UTF-8" standalone="no"?>
<!-- Created with Inkscape (http://www.inkscape.org/) -->

<svg
   xmlns:dc="http://purl.org/dc/elements/1.1/"
   xmlns:cc="http://creativecommons.org/ns#"
   xmlns:rdf="http://www.w3.org/1999/02/22-rdf-syntax-ns#"
   xmlns:svg="http://www.w3.org/2000/svg"
   xmlns="http://www.w3.org/2000/svg"
   xmlns:xlink="http://www.w3.org/1999/xlink"
   xmlns:sodipodi="http://sodipodi.sourceforge.net/DTD/sodipodi-0.dtd"
   xmlns:inkscape="http://www.inkscape.org/namespaces/inkscape"
   width="64"
   height="64"
   viewBox="0 0 64 64.000002"
   id="svg2"
   version="1.1"
   inkscape:version="0.92.4 (5da689c313, 2019-01-14)"
   sodipodi:docname="xbox.svg"
   inkscape:export-filename="/home/tharbaum/tmp/private_stuff/txt/apps/system/power/icon.png"
   inkscape:export-xdpi="90"
   inkscape:export-ydpi="90">
  <defs
     id="defs4">
    <inkscape:path-effect
       effect="bspline"
       id="path-effect1530"
       is_visible="true"
       weight="33.333333"
       steps="2"
       helper_size="0"
       apply_no_weight="true"
       apply_with_weight="true"
       only_selected="false" />
    <inkscape:path-effect
       effect="spiro"
       id="path-effect3850"
       is_visible="true" />
    <linearGradient
       id="linearGradient4159-2"
       inkscape:collect="always">
      <stop
         style="stop-color:#ababff;stop-opacity:1"
         offset="0"
         id="stop4219" />
      <stop
         id="stop4189"
         offset="1"
         style="stop-color:#0000b0;stop-opacity:1" />
    </linearGradient>
    <radialGradient
       inkscape:collect="always"
       xlink:href="#linearGradient4159-2"
       id="radialGradient4165"
       cx="9"
       cy="1028.1622"
       fx="9"
       fy="1028.1622"
       r="13"
       gradientTransform="matrix(0.60007064,0,0,0.60390713,-0.07462054,404.55765)"
       gradientUnits="userSpaceOnUse"
       spreadMethod="pad" />
  </defs>
  <sodipodi:namedview
     id="base"
     pagecolor="#ffffff"
     bordercolor="#666666"
     borderopacity="1.0"
     inkscape:pageopacity="0.0"
     inkscape:pageshadow="2"
     inkscape:zoom="2.8"
     inkscape:cx="25.635201"
     inkscape:cy="5.4062285"
     inkscape:document-units="px"
     inkscape:current-layer="layer1"
     showgrid="true"
     units="px"
     inkscape:window-width="1280"
     inkscape:window-height="755"
     inkscape:window-x="0"
     inkscape:window-y="1"
     inkscape:window-maximized="1"
     fit-margin-top="0"
     fit-margin-left="0"
     fit-margin-right="0"
     fit-margin-bottom="0"
     inkscape:snap-grids="false">
    <inkscape:grid
       type="xygrid"
       id="grid3336"
       empspacing="5"
       visible="true"
       enabled="true"
       snapvisiblegridlinesonly="true"
       originx="-1.3173673e-09"
       originy="-6.654646e-05"
       spacingx="1"
       spacingy="1" />
  </sodipodi:namedview>
  <metadata
     id="metadata7">
    <rdf:RDF>
      <cc:Work
         rdf:about="">
        <dc:format>image/svg+xml</dc:format>
        <dc:type
           rdf:resource="http://purl.org/dc/dcmitype/StillImage" />
        <dc:title></dc:title>
      </cc:Work>
    </rdf:RDF>
  </metadata>
  <g
     inkscape:label="Layer 1"
     inkscape:groupmode="layer"
     id="layer1"
     transform="translate(0,-988.36213)">
    <ellipse
       style="fill:url(#radialGradient4165);fill-opacity:1;fill-rule:nonzero;stroke:#ffffff;stroke-width:0.61390746;stroke-miterlimit:4;stroke-opacity:1;stroke-dasharray:none"
       id="path3357"
       cx="15.899113"
       cy="1036.4242"
       rx="15.34031"
       ry="15.376954"
       d="m 31.239423,1036.4242 c 0,8.4925 -6.868091,15.3769 -15.34031,15.3769 -8.4722196,0 -15.3403104,-6.8844 -15.3403104,-15.3769 0,-8.4925 6.8680908,-15.377 15.3403104,-15.377 8.472219,0 15.34031,6.8845 15.34031,15.377 z"
       sodipodi:cx="15.899113"
       sodipodi:cy="1036.4242"
       sodipodi:rx="15.34031"
       sodipodi:ry="15.376954"
       transform="matrix(2.0451339,0,0,2.0402602,-0.51581362,-1094.2129)" />
    <path
       style="opacity:0.98999999;fill:#ffffff;fill-opacity:1;stroke:none;stroke-width:1px;stroke-linecap:butt;stroke-linejoin:miter;stroke-opacity:1"
       d="m 81.833227,1045.0287 c -0.166774,-0.3336 -0.50008,-1.0002 -0.496005,-1.9514 0.0041,-0.9513 0.348126,-2.1974 1.068852,-3.7428 0.720727,-1.5454 1.821369,-3.3991 2.844416,-4.9928 1.023046,-1.5936 1.970658,-2.9308 3.241966,-4.4308 1.271308,-1.5 2.874715,-3.1719 4.640605,-4.9273 1.765889,-1.7554 3.705798,-3.6057 4.981535,-4.7656 1.275737,-1.1599 1.891584,-1.6337 2.301754,-1.907 0.41017,-0.2733 0.6159,-0.3471 0.8081,-0.3306 0.19219,0.016 0.36985,0.1209 0.7005,0.3675 0.33066,0.2467 0.81612,0.6372 2.54013,2.248 1.72402,1.6109 4.68405,4.4395 6.82266,6.6754 2.13861,2.236 3.45392,3.8775 4.43251,5.1744 0.97859,1.2969 1.62039,2.2491 2.14128,3.0514 0.5209,0.8024 0.92065,1.4546 1.29426,2.1544 0.37361,0.6999 0.72071,1.4467 1.01243,2.1246 0.29173,0.678 0.52902,1.2897 0.6475,1.8552 0.11848,0.5656 0.11848,1.086 0.0869,1.5493 -0.0315,0.4634 -0.0945,0.8677 -0.18507,1.1618 -0.0905,0.2941 -0.20353,0.4687 0.37414,-0.1354 0.57768,-0.6042 1.83218,-1.9737 2.46844,-2.684 0.63626,-0.7103 0.64677,-0.7523 0.67478,-1.0802 0.028,-0.328 0.0771,-0.9875 0.0797,-1.5786 0.003,-0.5912 -0.0396,-1.1397 -0.12895,-1.7651 -0.0894,-0.6254 -0.22639,-1.3316 -0.4753,-2.2019 -0.24891,-0.8704 -0.61399,-1.918 -1.03317,-2.9194 -0.41918,-1.0014 -0.89086,-1.9552 -1.56302,-3.2576 -0.67215,-1.3023 -1.54807,-2.9592 -2.16355,-4.077 -0.61549,-1.1179 -0.97336,-1.7021 -1.6334,-2.7539 -0.66004,-1.0519 -1.62331,-2.5731 -2.92131,-4.4239 -1.29801,-1.8508 -2.9267,-4.0259 -3.84607,-5.237 -0.91937,-1.2111 -1.13246,-1.4615 -1.24314,-1.6125 -0.11068,-0.151 -0.12093,-0.2022 -0.0801,-0.2767 0.0408,-0.075 0.13913,-0.1782 0.87777,-0.849 0.73864,-0.6708 2.14458,-1.9335 3.22816,-2.8434 1.08357,-0.9099 1.85753,-1.4785 2.77226,-2.0357 0.91472,-0.5572 1.97377,-1.1052 2.76265,-1.4469 0.78887,-0.3418 1.3103,-0.4787 1.60991,-0.5391 0.29961,-0.06 0.37881,-0.045 -0.41208,-0.7023 -0.79089,-0.6578 -2.4771,-2.00989 -3.33908,-2.69766 -0.86198,-0.68778 -0.90566,-0.7169 -1.18535,-0.71958 -0.27968,-0.003 -0.78753,0.0235 -1.30631,0.0472 -0.51877,0.0237 -1.04381,0.0447 -1.63893,0.11837 -0.59512,0.0737 -1.25672,0.19971 -2.07638,0.40792 -0.81966,0.20821 -1.78986,0.49665 -2.53727,0.75452 -0.74741,0.25783 -1.2676,0.48383 -1.8339,0.72613 -0.56629,0.2424 -1.17518,0.4996 -1.97898,0.8647 -0.80379,0.365 -1.80577,0.8396 -2.3713,1.0902 -0.56553,0.2507 -0.68674,0.2759 -0.79543,0.2654 -0.10869,-0.01 -0.19732,-0.057 -0.77185,-0.3394 -0.574525,-0.282 -1.629738,-0.7965 -2.453205,-1.1806 -0.823467,-0.3842 -1.412467,-0.6366 -2.191471,-0.9288 -0.779004,-0.2921 -1.746283,-0.62331 -2.633133,-0.88846 -0.88685,-0.26516 -1.701544,-0.46619 -2.401436,-0.58727 -0.699891,-0.12108 -1.288635,-0.16313 -1.873088,-0.20246 -0.584454,-0.0393 -1.172783,-0.0764 -1.535885,-0.0949 -0.363102,-0.0184 -0.494406,-0.0184 -0.610462,-0.0158 -0.116056,0.003 -0.210113,0.008 -1.107274,0.68466 -0.897162,0.6768 -2.564627,2.00033 -3.416335,2.69943 -0.851709,0.699 -0.874738,0.7738 -0.801551,0.7977 0.07319,0.024 0.232722,0 0.429228,-0.01 0.196506,-0.013 0.418977,-0.018 0.751584,0.053 0.332608,0.072 0.76656,0.218 1.232207,0.4036 0.465647,0.1857 0.970488,0.4142 1.501531,0.6981 0.531043,0.2839 1.094514,0.6262 1.662524,1.0154 0.56801,0.3892 1.141763,0.8261 2.191119,1.7203 1.049356,0.8942 2.575531,2.2467 3.357669,2.9503 0.782138,0.7035 0.817082,0.7535 0.832591,0.7978 0.01551,0.044 0.01117,0.07 -0.236399,0.3916 -0.247565,0.3212 -0.704058,0.8893 -1.192211,1.5015 -0.488153,0.6122 -0.984979,1.2397 -1.507611,1.9393 -0.522633,0.6995 -1.061073,1.4575 -1.790451,2.5186 -0.729378,1.0612 -1.643475,2.4165 -2.576314,3.8765 -0.932839,1.4599 -1.876711,3.012 -2.629329,4.312 -0.752618,1.2999 -1.309866,2.3408 -1.715148,3.1276 -0.405283,0.7869 -0.657535,1.3177 -1.006272,2.0654 -0.348737,0.7477 -0.787675,1.6987 -1.127496,2.5865 -0.339821,0.8877 -0.575884,1.7008 -0.747559,2.3376 -0.171676,0.6368 -0.275598,1.0836 -0.35685,1.4893 -0.08125,0.4056 -0.139801,0.7729 -0.187229,1.1074 -0.04743,0.3346 -0.08414,0.6388 -0.100025,0.9895 -0.01588,0.3506 -0.01057,0.7543 0.02364,1.1547 0.03421,0.4004 0.09719,0.7993 0.133994,1.0203 0.0368,0.221 0.04731,0.263 0.695254,1.0106 0.647947,0.7476 1.890775,2.1522 2.522828,2.8664 0.632053,0.7143 0.632056,0.7143 0.465283,0.3808 z"
       id="path1528"
       inkscape:connector-curvature="0"
       inkscape:path-effect="#path-effect1530"
       inkscape:original-d="m 82,1045.3622 c -0.332333,-0.6677 -0.665667,-1.3343 -1,-2 0.343309,-1.2356 0.686029,-2.4821 1.027543,-3.7217 1.099542,-1.8512 2.200186,-3.7049 3.298779,-5.5558 0.947416,-1.3365 1.895036,-2.6737 2.841054,-4.0091 1.599047,-1.6621 3.199817,-3.3366 4.798225,-5.0034 1.935941,-1.8413 3.873251,-3.6943 5.808377,-5.54 0.616236,-0.4743 1.232122,-0.948 1.846682,-1.4206 0.20582,-0.074 0.41138,-0.1483 0.61556,-0.2209 0.17884,0.1088 0.35877,0.2094 0.53665,0.3156 0.47895,0.393 0.96906,0.7777 1.45209,1.168 2.9676,2.8289 5.92513,5.6601 8.88619,8.4916 1.31629,1.6405 2.6316,3.282 3.94591,4.9245 0.64291,0.9514 1.28473,1.9036 1.9256,2.8569 0.40095,0.6515 0.8007,1.3037 1.19956,1.9571 0.34839,0.7464 0.69548,1.4932 1.04172,2.2413 0.23263,0.6097 0.4745,1.2196 0.71026,1.8309 10e-4,0.5203 10e-4,1.0407 0,1.5626 -0.0623,0.4049 -0.12527,0.8092 -0.1894,1.2153 -0.11507,0.1837 -0.2305,0.3568 -0.34724,0.5367 1.27188,-1.3884 2.52638,-2.7579 3.78807,-4.1353 0.0115,-0.043 0.022,-0.085 0.0316,-0.1263 0.047,-0.6147 0.0957,-1.2742 0.14205,-1.9098 -0.0358,-0.5473 -0.0832,-1.0954 -0.12627,-1.6415 -0.13556,-0.7048 -0.27258,-1.411 -0.41038,-2.115 -0.36162,-1.0363 -0.72504,-2.0845 -1.08907,-3.1252 -0.47224,-0.9633 -0.94601,-1.9161 -1.42052,-2.8726 -0.87199,-1.6471 -1.74573,-3.3051 -2.62009,-4.9561 -0.35668,-0.5848 -0.71452,-1.169 -1.07328,-1.752 -0.96134,-1.5207 -1.92461,-3.0419 -2.88841,-4.5614 -1.62969,-2.1841 -3.26095,-4.3573 -4.89292,-6.5345 -0.20944,-0.2429 -0.4199,-0.4955 -0.63135,-0.7418 -0.0148,-0.054 -0.02,-0.1062 -0.0316,-0.1578 0.0891,-0.1 0.19041,-0.2009 0.28411,-0.2999 1.3809,-1.2455 2.78944,-2.5053 4.18266,-3.7565 0.77382,-0.5688 1.5478,-1.1374 2.32019,-1.7046 1.05697,-0.5474 2.11601,-1.0954 3.17252,-1.6415 0.52127,-0.1377 1.04271,-0.2746 1.56257,-0.4104 0.0797,0.015 0.15884,0.031 0.23676,0.047 -1.66097,-1.3295 -3.34513,-2.68419 -5.0192,-4.02479 -0.0516,-0.0326 -0.0937,-0.0641 -0.14205,-0.0947 -0.51182,0.0254 -1.01967,0.0516 -1.53101,0.0789 -0.5262,0.0201 -1.05124,0.0411 -1.57836,0.0631 -0.66323,0.12551 -1.32483,0.25153 -1.98874,0.3788 -0.97401,0.29414 -1.94565,0.57774 -2.91997,0.8681 -0.5205,0.22559 -1.04072,0.45149 -1.56258,0.67879 -0.61072,0.2574 -1.21961,0.5146 -1.83091,0.7734 -0.99533,0.4734 -1.99826,0.946 -2.99889,1.4205 -0.13068,0.025 -0.25153,0.052 -0.3788,0.079 -0.0893,-0.049 -0.17788,-0.096 -0.26833,-0.142 -1.060844,-0.5135 -2.114002,-1.0322 -3.172505,-1.5468 -0.588487,-0.2537 -1.177512,-0.5061 -1.767767,-0.7577 -0.967856,-0.3327 -1.935126,-0.66392 -2.904189,-0.99438 -0.804455,-0.20105 -1.619453,-0.40085 -2.430679,-0.59978 -0.588772,-0.0431 -1.177512,-0.0852 -1.767767,-0.12627 -0.578641,-0.0379 -1.166989,-0.0747 -1.751984,-0.11048 -0.141279,-10e-4 -0.272583,-10e-4 -0.410374,0 -0.09439,0.004 -0.188404,0.01 -0.284106,0.0158 -1.701295,1.34488 -3.366175,2.67171 -5.050762,4.00911 -0.01479,0.062 -0.04109,0.1358 -0.06314,0.2051 0.166946,-0.028 0.327195,-0.043 0.489293,-0.063 0.230917,-0.01 0.453464,-0.012 0.678696,-0.016 0.440944,0.1457 0.874361,0.2937 1.310042,0.442 0.49488,0.2249 1.00063,0.4514 1.499445,0.6787 0.563438,0.3406 1.126899,0.6829 1.688849,1.0259 0.57418,0.4355 1.147944,0.8724 1.720416,1.3101 1.526349,1.3507 3.052502,2.7032 4.577253,4.0563 0.04309,0.052 0.07466,0.1043 0.110486,0.1579 -0.0043,0.036 -0.0095,0.062 -0.01578,0.095 -0.489536,0.6094 -0.946018,1.1775 -1.420527,1.7678 -0.505015,0.6315 -0.99863,1.2616 -1.499445,1.894 -0.54185,0.7685 -1.08281,1.5247 -1.625714,2.2886 -0.915815,1.3584 -1.829902,2.7138 -2.746352,4.0722 -0.946821,1.5629 -1.893037,3.1136 -2.841055,4.6719 -0.557108,1.0416 -1.114376,2.0825 -1.673065,3.1252 -0.251827,0.531 -0.504076,1.0618 -0.757614,1.5942 -0.441943,0.9639 -0.882884,1.914 -1.325825,2.8726 -0.241321,0.8155 -0.472509,1.63 -0.710264,2.4464 -0.104378,0.4574 -0.209448,0.904 -0.315672,1.3574 -0.05702,0.3577 -0.114747,0.7251 -0.17362,1.0891 -0.03594,0.3051 -0.07266,0.6093 -0.110486,0.9155 0.0063,0.395 0.01152,0.7987 0.01578,1.1995 0.06429,0.3998 0.127269,0.7987 0.189403,1.1996 0.01154,0.041 0.02204,0.083 0.03157,0.1262 1.286231,1.4514 2.529064,2.8559 3.792096,4.2854 z"
       transform="matrix(1.0916952,0,0,1.0916952,-78.650729,-96.522479)" />
  </g>
</svg>
